<svg width="20" height="23" viewBox="0 0 20 23" fill="none" xmlns="http://www.w3.org/2000/svg">
<path d="M4.59239 12.9874C2.28697 11.6959 -0.479458 7.63671 1.93204 3.97419C3.43 1.69914 4.16205 8.12873 4.59239 12.9874C4.65387 8.22098 11.3018 -1.00788 14.4733 1.39108C18.2542 4.25095 8.95727 10.2506 4.59239 12.9874C8.7421 12.8951 20.6518 18.2734 18.8075 21.2255C17.2519 23.7154 5.88341 19.9986 4.59239 12.9874C4.59239 17.6001 8.29916 23.2769 4.88292 21.2255C1.45707 19.1684 3.76243 13.7254 4.59239 12.9874Z" fill="#B10F37"/>
<path d="M4.59239 12.9874C2.28697 11.6959 -0.479458 7.63671 1.93204 3.97419C3.43 1.69914 4.16205 8.12873 4.59239 12.9874ZM4.59239 12.9874C3.76243 13.7254 1.45707 19.1684 4.88292 21.2255C8.29916 23.2769 4.59239 17.6001 4.59239 12.9874ZM4.59239 12.9874C4.65387 8.22098 11.3018 -1.00788 14.4733 1.39108C18.2542 4.25095 8.95727 10.2506 4.59239 12.9874ZM4.59239 12.9874C5.88341 19.9986 17.2519 23.7154 18.8075 21.2255C20.6518 18.2734 8.7421 12.8951 4.59239 12.9874Z" stroke="#B10F37"/>
</svg>
